<?xml version="1.0" encoding="utf-8"?>
<!DOCTYPE svg PUBLIC "-//W3C//DTD SVG 1.0//EN" "http://www.w3.org/TR/2001/REC-SVG-20010904/DTD/svg10.dtd">
<svg version="1.0" xmlns="http://www.w3.org/2000/svg" width="2652px" height="2007px" viewBox="0 0 2652 2007" preserveAspectRatio="xMidYMid meet">
 <g fill="#33a956">
  <path d="M1419.40 1853.26 c-68.09 -12.32 -123.42 -61.82 -144.92 -129.69 -6.72 -21.05 -8.51 -66.97 -3.81 -89.59 8.29 -39.42 25.31 -70.11 54.43 -98.78 15.23 -15.23 22.17 -20.16 41.44 -29.57 12.77 -6.27 30.46 -12.99 38.97 -15.23 19.04 -4.70 61.15 -5.38 80.64 -1.12 31.58 6.94 63.39 23.07 85.34 43.23 12.77 11.87 16.58 19.04 16.58 32.03 0 8.29 -1.34 11.65 -7.39 18.37 -6.50 6.94 -9.18 8.29 -19.93 9.18 -13.89 1.12 -20.61 -1.57 -38.53 -15.68 -46.59 -36.96 -113.11 -34.05 -153.65 6.94 -23.97 24.19 -34.94 54.43 -32.93 92.06 3.36 70.11 56.67 120.06 123.64 115.80 23.74 -1.57 43.23 -8.74 60.92 -21.95 18.14 -13.89 25.53 -17.69 34.27 -17.69 22.17 0 38.30 20.61 31.58 40.99 -8.06 23.97 -60.25 54.65 -105.50 61.82 -19.26 3.14 -39.65 2.69 -61.15 -1.12z"/>
  <path d="M1706.78 1851.92 c-4.26 -1.12 -10.30 -4.26 -12.99 -6.94 -12.54 -11.42 -12.10 -5.15 -12.32 -174.93 l-0.45 -157.01 5.38 -8.74 c5.82 -9.41 19.26 -16.80 30.69 -17.02 15.68 0 34.49 16.58 34.49 30.69 0 11.87 2.24 12.32 14.34 1.57 25.76 -22.62 57.34 -33.15 101.02 -33.15 30.24 -0.22 45.47 2.46 53.98 9.41 14.11 11.65 17.25 32.48 6.72 46.37 -8.96 11.65 -18.37 13.66 -50.17 10.53 -36.73 -3.58 -59.13 -0.45 -82.65 11.65 -20.16 10.08 -33.15 23.97 -39.20 42.11 -1.79 4.93 -3.14 44.35 -3.81 116.47 -1.34 106.39 -1.57 109.08 -6.05 115.35 -9.18 12.10 -24.86 17.69 -38.97 13.66z"/>
  <path d="M2018.12 1849.68 c-6.72 -3.36 -11.87 -8.29 -15.01 -14.11 l-5.15 -8.96 0 -155.45 c0 -154.55 0 -155.22 4.70 -163.73 12.99 -23.07 49.50 -22.17 61.37 1.57 l4.70 9.63 8.51 -5.82 c12.77 -8.74 34.27 -18.14 50.62 -22.40 19.71 -4.93 60.03 -3.36 80.86 3.36 18.81 6.05 40.32 20.16 49.95 32.70 l7.39 9.86 10.98 -11.20 c6.05 -6.05 16.13 -13.66 22.17 -16.80 6.27 -3.14 14.34 -7.39 17.92 -9.41 21.05 -11.20 67.64 -15.23 97.21 -8.29 48.16 11.42 81.76 46.81 93.40 98.55 3.58 15.90 4.03 30.01 4.26 126.55 0 84.89 -0.67 110.43 -2.91 117.14 -6.72 18.81 -33.37 27.77 -49.50 16.80 -4.26 -2.91 -9.86 -8.74 -12.32 -12.99 -4.48 -7.62 -4.70 -11.87 -5.82 -120.95 -1.12 -109.08 -1.34 -113.56 -5.82 -123.42 -11.42 -24.41 -31.36 -37.41 -60.70 -39.42 -38.08 -2.69 -66.52 13.44 -80.64 45.25 -3.36 8.06 -3.81 18.14 -3.14 111.99 0.67 111.55 -0.22 120.73 -10.53 131.93 -16.80 17.69 -43.68 15.90 -55.10 -4.03 l-5.38 -9.18 -0.90 -112.22 -0.67 -112.22 -7.84 -15.46 c-6.05 -12.10 -10.30 -17.02 -18.81 -22.85 -15.90 -10.53 -32.25 -14.78 -53.08 -13.22 -29.34 2.02 -52.41 16.35 -63.39 39.65 -4.48 9.63 -4.70 14.11 -5.82 122.07 -0.90 76.38 -2.02 113.79 -3.81 117.59 -5.38 11.87 -21.50 22.40 -34.27 22.40 -2.02 0 -8.06 -2.24 -13.44 -4.93z"/>
  <path d="M842.19 1269.56 c0 -10.08 24.41 -77.50 40.77 -112.89 65.85 -142.23 173.14 -277.30 300.81 -378.54 91.83 -72.80 193.52 -128.79 326.57 -179.86 29.12 -11.20 53.53 -20.38 54.20 -20.38 0.67 0 1.12 4.70 1.12 10.75 l-0.22 10.53 -33.15 18.59 c-64.96 36.73 -159.48 100.57 -206.29 139.32 -29.57 24.64 -70.33 63.61 -94.52 90.71 l-22.17 24.41 11.87 4.26 c19.04 6.50 50.40 14.34 73.92 18.14 155 26.21 330.38 -33.82 458.95 -157.01 19.04 -18.37 22.62 -20.83 29.79 -20.83 7.17 0 8.06 0.67 8.06 5.82 0 3.14 1.12 7.62 2.24 10.08 2.24 3.81 4.03 4.26 16.80 2.91 13.89 -1.34 14.56 -1.34 14.56 3.36 0 4.03 1.34 4.70 10.08 4.70 5.60 0 10.08 -0.90 10.08 -2.24 0 -3.36 15.01 -2.69 16.58 0.67 1.12 2.24 1.57 2.24 2.69 0 0.67 -1.57 2.69 -2.91 4.48 -2.91 1.79 0 3.14 -0.90 3.14 -2.24 0 -1.34 6.27 -2.24 14.56 -2.24 10.98 0 14.56 0.67 14.56 3.14 0 7.84 -45.92 62.94 -78.17 93.85 -78.40 75.04 -170.45 128.79 -271.70 158.13 -12.99 3.81 -41.66 10.08 -63.84 14.11 -37.85 6.72 -42.78 7.17 -96.99 7.17 -42.56 0 -64.06 -0.90 -84.89 -3.81 -55.77 -7.84 -104.15 -20.38 -159.93 -41.21 -29.12 -10.98 -33.82 -12.10 -38.53 -9.63 -10.08 5.38 -58.68 48.38 -89.82 79.29 -64.28 64.28 -112.22 128.79 -153.21 206.96 -15.90 30.24 -22.40 37.85 -22.40 26.88z"/>
  <path d="M1330.48 1240.66 c-24.19 -2.69 -61.82 -10.30 -84.44 -16.80 -73.47 -20.83 -157.46 -67.20 -214.58 -118.26 l-8.96 -8.06 8.51 -7.62 c4.48 -4.03 23.52 -18.37 42.11 -31.58 23.74 -17.25 34.72 -23.74 36.73 -22.17 1.57 1.12 14.11 9.63 27.77 18.81 23.07 15.68 24.86 17.25 24.86 24.19 0 6.05 -0.90 7.17 -5.38 7.17 -5.60 0 -8.06 3.58 -8.06 11.87 0 6.05 8.74 11.65 45.92 30.24 69.66 34.72 144.47 52.86 217.27 52.86 62.49 0 112.67 -10.30 189.27 -38.75 19.93 -7.39 70.56 -34.72 97.21 -52.64 61.60 -41.21 116.47 -96.54 154.33 -155.22 15.01 -23.29 16.58 -25.09 23.29 -25.31 6.27 0 14.11 4.70 14.11 8.29 0 3.58 -27.10 49.28 -42.78 72.35 -22.85 34.05 -47.04 62.72 -79.52 94.07 -87.80 85.56 -205.84 142.23 -325.68 156.79 -22.17 2.69 -87.80 2.46 -111.99 -0.22z"/>
  <path d="M976.58 877.58 c0 -1.34 -2.46 -7.62 -5.38 -13.89 -18.59 -39.20 -41.44 -139.10 -36.29 -158.81 1.12 -5.15 2.69 -6.05 8.96 -6.05 l7.39 0 1.57 15.90 c2.02 19.04 6.27 39.87 11.20 53.53 2.02 5.60 3.58 12.32 3.58 15.23 0 2.69 0.90 4.93 1.79 4.93 0.90 0 2.91 7.17 4.48 16.13 1.57 8.74 5.38 26.65 8.74 39.87 5.82 23.74 5.82 23.97 1.57 29.79 -4.48 6.27 -7.62 7.62 -7.62 3.36z"/>
  <path d="M813.97 759.99 c-9.86 -14.78 -10.75 -23.07 -1.79 -23.07 7.39 0 20.83 18.37 21.05 28.67 0 6.05 -0.90 7.17 -5.15 7.17 -3.81 0 -7.62 -3.36 -14.11 -12.77z"/>
 </g>
 <g fill="#3db159">
  <path d="M833.90 1301.36 c0.45 -1.79 2.69 -11.20 4.93 -20.61 2.24 -9.63 4.70 -17.02 5.15 -16.35 0.67 0.67 2.46 0 4.26 -1.57 5.38 -4.48 1.34 10.53 -7.39 26.88 -4.26 8.29 -7.39 13.44 -6.94 11.65z"/>
  <path d="M1881.49 921.93 c0 -4.70 -5.15 -5.60 -8.29 -1.57 -2.24 2.91 -2.69 2.24 -2.91 -4.93 0 -6.27 4.03 -15.46 15.90 -36.96 18.59 -33.15 21.05 -36.29 28.22 -36.29 6.27 0 6.50 -0.90 -5.15 30.24 -10.98 30.01 -20.38 49.72 -24.41 51.07 -2.02 0.90 -3.36 0.22 -3.36 -1.57z"/>
  <path d="M870.19 877.58 c-4.26 -20.16 -31.13 -81.08 -43.90 -99.67 -7.39 -10.75 -7.84 -11.87 -2.91 -11.87 3.14 0 3.14 -0.45 0 -4.93 -2.02 -2.69 -3.58 -6.72 -3.58 -8.74 0 -2.02 -1.57 -4.93 -3.36 -6.50 -2.91 -2.24 -3.36 -2.02 -3.36 2.02 0 5.60 -1.57 5.82 -6.50 1.57 -2.91 -2.46 -6.27 -2.69 -17.47 -0.90 -7.62 1.34 -17.47 1.57 -21.73 0.90 -6.94 -1.34 -8.06 -2.46 -8.06 -7.62 0 -8.96 3.81 -11.65 17.02 -11.65 9.86 0 12.10 -0.67 13.22 -4.48 0.90 -3.14 3.36 -4.48 7.84 -4.48 5.38 0 8.96 2.69 19.04 15.23 14.56 17.47 32.70 43.45 42.11 59.58 l6.27 11.42 -0.90 -10.98 -1.12 -10.75 5.38 9.41 c2.91 5.15 5.38 10.98 5.38 12.99 0 2.02 2.69 17.47 5.82 34.49 6.50 34.27 6.05 42.11 -2.24 42.11 -4.26 0 -5.82 -1.57 -6.94 -7.17z"/>
  <path d="M977.48 838.61 c-0.67 -2.24 -2.69 -8.06 -4.48 -12.77 -1.79 -4.48 -3.14 -11.87 -3.14 -15.90 0 -10.30 -2.24 -16.13 -4.70 -12.32 -1.12 2.02 -2.24 0.67 -3.14 -3.81 -0.67 -3.58 -2.91 -11.42 -4.70 -17.69 -5.38 -17.02 -9.41 -37.18 -11.20 -54.88 -1.12 -10.98 -2.24 -15.01 -3.58 -12.77 -2.02 3.81 2.69 38.97 8.51 64.06 1.79 7.84 2.91 14.78 2.24 15.23 -2.02 2.24 -11.20 -34.94 -13.89 -57.56 -0.67 -6.72 -2.69 -12.99 -4.03 -13.89 -4.03 -2.69 -2.91 -85.34 1.57 -115.13 12.32 -79.07 43.23 -151.86 91.61 -217.04 13.22 -17.69 14.56 -18.81 22.62 -19.04 8.06 0 8.29 0.22 8.29 7.84 0 7.62 0.22 7.84 8.74 7.84 4.93 0 9.41 1.12 9.86 2.91 0.67 1.57 1.34 0.90 1.34 -1.34 0.22 -6.27 5.82 -10.53 13.22 -10.53 10.98 0 10.30 5.60 -2.02 19.26 -56.22 62.27 -101.02 154.10 -116.25 239.22 -10.98 60.92 -10.53 124.09 1.34 182.55 2.91 15.23 4.93 28.22 4.48 28.89 -0.67 0.67 -1.79 -0.90 -2.69 -3.14z"/>
  <path d="M955.53 802.99 c-0.67 -2.02 -1.34 -5.82 -1.12 -8.51 0.22 -3.58 0.90 -2.69 2.24 2.69 2.24 7.62 1.34 12.32 -1.12 5.82z"/>
  <path d="M1885.07 756.40 c0.90 -1.34 3.58 -4.93 6.05 -7.62 4.70 -5.15 3.58 -10.30 -1.12 -5.60 -1.57 1.57 -3.81 1.79 -6.72 0.22 -2.69 -1.34 -4.03 -1.34 -4.03 0.22 0 1.12 -1.34 2.24 -3.14 2.24 -1.79 0 -4.03 2.02 -4.70 4.48 -1.57 4.70 -5.60 6.27 -5.60 2.02 0 -1.34 -1.57 -2.02 -3.36 -1.12 -1.79 0.67 -4.70 -0.22 -6.50 -2.02 -2.46 -2.46 -3.36 -2.69 -4.03 -0.67 -0.67 1.57 -3.81 2.69 -6.94 2.24 -3.58 -0.22 -6.05 0.67 -6.05 2.46 0 2.02 -0.45 2.02 -1.79 0 -0.90 -1.34 -3.14 -2.46 -4.93 -2.46 -7.62 0.45 -18.81 -0.90 -16.13 -2.02 3.36 -1.34 3.58 -7.39 0.22 -7.39 -1.12 0 -1.79 0.90 -1.12 2.02 0.67 1.12 -1.34 2.46 -4.26 3.14 -3.14 0.45 -6.27 0.22 -6.72 -0.67 -0.67 -1.12 -3.14 -1.34 -5.82 -0.67 -3.14 0.90 -6.27 -0.45 -9.86 -4.48 -2.91 -2.91 -4.70 -6.27 -4.03 -6.94 0.90 -0.67 0.22 -1.34 -1.57 -1.34 -2.24 0 -2.24 -0.67 0 -3.36 4.48 -5.38 0.67 -6.94 -4.70 -2.02 l-4.70 4.26 1.57 -7.84 c0.90 -4.48 6.50 -12.99 13.22 -20.61 10.08 -11.42 12.54 -12.99 19.93 -12.99 6.72 0 8.29 0.90 8.29 4.26 0 3.14 2.02 4.48 8.51 5.38 18.14 2.69 21.95 4.26 26.21 10.75 4.03 5.60 5.82 6.50 15.68 6.50 6.27 0 14.78 0.90 19.26 2.02 6.72 1.57 8.74 1.12 11.20 -2.24 3.36 -4.93 16.80 -5.82 18.37 -1.34 1.12 3.36 -23.74 40.77 -28.67 42.78 -2.46 0.90 -3.14 0.45 -2.02 -1.57z"/>
  <path d="M813.29 699.06 l-7.62 -6.27 4.70 -4.70 c6.72 -6.72 10.75 -6.05 12.54 2.02 1.79 9.41 1.79 15.46 -0.22 15.46 -1.12 0 -5.15 -2.91 -9.41 -6.50z"/>
  <path d="M1555.14 594.91 c6.27 -4.70 4.93 -9.86 -2.24 -8.51 -10.98 1.79 -2.91 -3.14 19.49 -12.54 11.65 -4.70 25.53 -9.18 30.91 -9.86 8.51 -1.34 9.41 -0.90 9.41 3.58 0 6.50 -42.56 30.46 -53.98 30.46 -6.72 -0.22 -7.17 -0.45 -3.58 -3.14z"/>
  <path d="M794.70 580.57 c-14.78 -15.01 -17.02 -22.85 -6.50 -22.85 8.06 0 9.18 -3.36 9.18 -31.36 0 -28.67 0.90 -31.36 10.08 -31.36 8.51 0 8.74 0.67 11.20 27.55 1.34 13.89 1.79 15.01 6.94 15.01 2.91 0 5.38 -0.90 5.38 -2.24 0 -1.12 3.58 -2.24 7.84 -2.24 5.60 0 7.84 0.90 7.84 3.58 0 10.53 -29.57 56.89 -36.29 56.89 -1.34 0 -8.29 -5.82 -15.68 -12.99z"/>
 </g>
 <g fill="#54bd5a">
  <path d="M1376.40 1188.02 c-72.12 -7.62 -131.03 -24.41 -190.39 -53.98 -35.84 -17.92 -47.26 -25.76 -48.61 -32.93 -0.90 -4.26 -0.22 -5.15 2.46 -4.03 2.91 1.12 3.14 0.67 0.90 -2.02 -2.02 -2.46 -1.79 -4.03 0.45 -7.39 1.79 -2.24 2.46 -5.38 2.02 -6.94 -1.34 -3.36 5.15 -6.27 6.94 -3.36 2.46 4.03 5.60 2.24 5.60 -3.36 0 -3.14 0.45 -5.60 1.12 -5.60 0.67 0 5.82 2.91 11.87 6.72 20.38 12.32 62.04 31.13 89.59 40.32 56 18.37 105.50 25.31 171.57 24.19 47.49 -0.67 46.14 -1.12 46.14 11.87 0 3.58 1.12 6.50 2.24 6.50 1.34 0 2.24 1.57 2.24 3.36 0 1.79 2.02 3.36 4.26 3.36 2.24 0 4.70 1.57 5.60 3.36 0.90 2.46 4.70 3.36 13.66 3.36 9.18 0 12.32 0.90 12.32 3.14 0 3.58 -3.14 4.48 -34.72 9.18 -22.17 3.58 -87.80 6.05 -105.27 4.26z"/>
  <path d="M877.58 908.94 c-4.93 -24.86 -5.38 -29.79 -2.91 -32.48 1.79 -1.57 2.69 -4.48 2.02 -6.27 -0.90 -2.24 0 -3.36 3.14 -3.36 3.81 0 4.93 2.24 6.94 15.23 1.12 8.29 2.91 24.41 3.58 35.84 1.12 19.04 0.90 20.61 -2.91 20.61 -3.58 0 -4.93 -4.48 -9.86 -29.57z"/>
  <path d="M1903.21 852.49 c-1.34 -3.36 9.18 -14.78 13.66 -14.78 2.91 0 3.36 2.91 1.34 10.75 -1.12 4.03 -2.02 4.48 -4.48 2.46 -2.46 -2.02 -3.36 -1.79 -4.48 1.12 -1.79 4.48 -4.48 4.70 -6.05 0.45z"/>
  <path d="M833.23 761.55 c-3.14 -4.93 -6.05 -8.96 -6.72 -8.96 -0.67 0 -3.14 -3.14 -5.38 -6.72 -2.02 -3.81 -4.70 -6.27 -5.60 -5.82 -0.90 0.67 -4.70 -1.79 -8.06 -5.38 -7.84 -8.06 -9.63 -8.29 -11.42 -1.12 -0.67 3.14 -2.24 5.15 -3.14 4.48 -1.12 -0.67 -2.69 -0.22 -3.36 1.12 -0.90 1.57 -2.46 1.57 -4.03 0.45 -3.14 -2.24 -12.77 -2.24 -16.58 0.22 -1.34 0.90 -2.24 3.58 -1.79 5.82 0.67 3.58 -0.45 3.81 -10.53 2.24 -16.13 -2.69 -25.76 -6.05 -41.66 -14.78 -15.90 -8.74 -39.20 -29.57 -51.07 -45.69 -6.72 -9.41 -7.62 -11.42 -5.15 -15.68 2.24 -4.48 3.58 -4.70 18.59 -3.58 8.74 0.90 22.85 4.03 31.13 7.17 8.51 3.14 19.04 6.50 23.52 7.62 l8.29 1.79 -0.90 -12.32 -0.67 -12.32 6.94 4.93 c12.10 8.74 31.81 27.77 52.86 51.07 21.05 23.29 45.02 54.43 41.89 54.43 -0.90 0 -4.03 -4.03 -7.17 -8.96z"/>
  <path d="M1645.18 752.15 c-11.42 -4.03 -16.80 -10.53 -16.80 -20.38 l0 -8.74 8.51 1.12 c4.48 0.45 11.42 2.02 15.23 3.36 20.38 6.50 47.93 -20.83 47.93 -48.16 0 -6.94 0.45 -7.39 7.62 -7.39 11.42 0 12.99 3.58 11.42 25.09 -0.90 10.30 -2.46 21.95 -3.81 25.98 -3.14 10.30 -14.56 22.62 -25.31 27.55 -10.08 4.70 -33.60 5.38 -44.80 1.57z"/>
  <path d="M1875.44 726.39 c-2.24 -3.58 -2.91 -3.58 -4.93 -0.67 -1.79 2.69 -3.14 2.91 -6.72 0.67 -3.36 -2.24 -4.70 -2.24 -5.60 0 -1.12 2.02 -1.57 2.02 -2.69 0 -0.67 -1.57 -2.46 -2.91 -3.81 -2.91 -1.57 0 -4.03 -2.02 -5.60 -4.70 -2.24 -3.36 -3.58 -4.03 -5.82 -2.24 -2.91 2.46 -5.82 1.12 -5.82 -2.46 0 -1.12 0.90 -1.57 2.02 -0.67 1.12 0.67 2.69 0.22 3.58 -1.12 0.67 -1.34 -0.67 -2.24 -3.36 -2.24 -2.69 0 -6.94 -1.12 -9.41 -2.46 -3.58 -2.02 -5.15 -1.79 -6.50 0.45 -1.12 2.02 -2.02 2.24 -2.02 0.67 0 -1.57 -1.34 -2.69 -2.69 -2.46 -9.41 0.22 -10.98 -0.67 -8.51 -5.15 3.36 -6.27 -1.12 -5.82 -5.60 0.67 -3.81 4.70 -3.81 4.70 -2.24 -4.03 0.90 -4.93 4.03 -11.87 6.94 -15.68 71.23 -88.03 124.09 -183.89 167.09 -303.50 21.28 -58.91 49.05 -162.39 56.67 -209.88 1.57 -10.30 8.51 -20.83 13.44 -20.83 5.15 0 6.72 18.14 6.72 81.76 0 172.92 -42.11 334.41 -121.62 467.68 -13.22 22.17 -17.69 28.22 -19.26 25.53 -1.79 -2.69 -2.91 -2.46 -7.17 2.02 -4.48 4.26 -6.50 4.70 -12.10 3.14 -3.81 -1.12 -7.17 -1.12 -7.84 0.22 -2.02 3.14 -4.26 2.46 -7.17 -1.79z"/>
  <path d="M805.01 691.67 c-3.58 -3.81 -13.44 -12.54 -21.95 -19.71 -14.34 -11.87 -15.23 -13.44 -16.13 -23.07 -0.45 -5.60 -3.36 -15.46 -6.50 -21.95 -5.82 -12.32 -7.39 -24.41 -3.14 -24.41 4.03 0 22.85 14.78 33.15 25.76 12.10 13.22 21.50 28.22 27.33 43.45 4.93 13.44 4.26 21.28 -2.24 24.64 -3.14 1.79 -5.38 0.90 -10.53 -4.70z"/>
  <path d="M794.70 580.80 c-19.71 -20.38 -29.57 -43.45 -28.22 -66.08 0.67 -11.20 1.12 -11.87 7.17 -12.54 4.70 -0.67 7.39 0.67 11.20 5.38 2.46 3.36 8.06 9.86 12.10 14.56 6.27 7.17 7.17 9.86 7.17 20.61 0 6.94 -1.12 15.23 -2.24 18.37 -2.02 4.93 -3.36 5.82 -7.84 4.70 -3.14 -0.90 -5.60 -0.90 -5.60 -0.22 0 1.57 8.74 14.11 14.34 20.83 7.84 8.74 2.69 5.15 -8.06 -5.60z"/>
  <path d="M806.58 546.97 c0 -3.36 0.67 -4.70 1.34 -3.14 2.02 5.15 5.15 2.69 5.15 -4.03 0 -4.03 3.14 -11.65 7.62 -18.59 4.26 -6.27 8.96 -15.90 10.53 -21.05 4.03 -13.89 9.86 -12.99 14.34 2.02 3.58 12.54 4.03 18.59 2.02 31.13 -1.12 6.27 -2.24 8.06 -5.15 7.17 -2.46 -0.67 -4.70 1.12 -6.50 4.70 -2.91 6.50 -6.05 7.39 -8.06 2.46 -0.67 -1.79 -2.46 -3.36 -3.81 -3.36 -1.79 0 -1.57 1.12 0.45 3.58 2.69 3.36 2.46 3.58 -1.79 2.24 -2.91 -0.90 -6.27 -0.90 -7.84 0.22 -5.82 3.58 -8.51 2.46 -8.29 -3.36z"/>
  <path d="M1075.36 394.44 c-0.22 -1.79 -1.57 -2.46 -3.81 -1.57 -2.69 0.90 -3.36 0.45 -2.24 -2.02 1.57 -4.26 -8.74 -4.70 -11.42 -0.45 -2.02 3.14 -9.63 4.26 -9.63 1.34 0 -1.12 1.12 -2.02 2.24 -2.02 1.34 0 2.24 -1.57 2.24 -3.58 0 -3.14 -0.22 -3.14 -3.58 0 -1.79 2.02 -3.81 3.58 -4.48 3.58 -2.02 0 -0.67 -4.26 2.02 -7.17 4.03 -4.03 6.27 -10.75 3.81 -10.75 -1.34 0 -2.24 0.67 -2.24 1.79 -0.22 0.90 -2.69 4.70 -5.60 8.29 -5.15 6.27 -5.60 6.27 -5.60 1.79 0 -2.69 1.57 -6.27 3.36 -8.29 1.79 -1.79 3.36 -5.38 3.36 -8.06 0 -6.27 52.19 -58.46 78.40 -78.62 98.78 -75.93 213.91 -109.08 349.64 -100.79 69.88 4.26 112.67 13.89 157.69 35.84 24.41 11.87 62.94 35.39 61.15 37.41 -0.45 0.22 -10.08 -2.91 -21.73 -7.17 -87.80 -32.93 -192.18 -43.68 -278.86 -28.67 -104.38 17.92 -200.24 67.20 -277.30 142.23 -12.10 11.65 -18.14 16.35 -19.04 14.11 -2.02 -5.15 -7.39 2.24 -5.82 8.06 1.12 4.70 0.67 4.93 -4.48 3.58 -3.58 -0.90 -6.05 -0.22 -6.72 1.57 -0.90 2.02 -1.34 2.02 -1.34 -0.45z"/>
 </g>
 <g fill="#72c44e">
  <path d="M1484.13 1176.82 c-2.02 -1.34 -2.91 -3.14 -2.02 -3.81 0.67 -0.90 -0.67 -1.57 -3.36 -1.57 -2.91 0 -4.93 -1.34 -4.93 -3.58 0 -1.79 -0.90 -2.91 -2.02 -2.02 -1.12 0.67 -2.69 -0.90 -3.58 -3.36 -0.67 -2.46 -2.24 -4.48 -3.14 -4.48 -3.36 0 -1.57 -6.72 1.79 -6.94 2.02 -0.22 1.12 -0.90 -1.79 -1.79 -6.94 -1.79 -8.96 -6.94 -2.69 -6.94 2.69 0 4.70 -0.90 4.70 -2.02 0 -0.90 6.50 -2.46 14.34 -3.14 31.13 -2.91 94.52 -18.59 130.36 -32.25 1.34 -0.45 4.03 3.14 5.82 8.06 2.91 7.17 5.60 9.86 12.77 12.77 5.15 2.02 9.18 4.70 9.18 6.27 0 6.27 -50.17 26.43 -98.55 39.65 -21.50 5.82 -52.19 8.74 -56.89 5.15z"/>
  <path d="M879.37 1029.89 c1.57 -7.84 2.91 -16.80 3.14 -20.16 0 -5.15 1.12 -6.27 5.38 -6.27 12.99 0 12.99 1.34 2.91 21.28 -11.65 23.07 -15.68 24.86 -11.42 5.15z"/>
  <path d="M1034.82 794.03 c0 -17.25 0.45 -19.04 4.26 -19.04 3.58 0 4.48 1.79 5.15 9.63 0.67 8.06 1.57 9.63 6.05 10.08 5.15 0.90 4.93 1.12 -3.36 9.63 -4.70 4.70 -9.41 8.74 -10.30 8.74 -0.90 0 -1.79 -8.51 -1.79 -19.04z"/>
  <path d="M1630.17 739.83 c-8.96 -1.34 -11.87 -11.20 -11.87 -38.75 0 -22.40 0.45 -24.41 7.62 -39.20 5.82 -11.42 13.22 -21.28 28.22 -36.29 19.04 -19.49 21.05 -20.83 29.57 -20.83 8.96 0 8.96 0 16.13 15.23 11.20 24.41 18.14 46.59 18.14 57.56 0 5.60 -0.90 10.08 -2.02 10.08 -1.34 0 -2.69 3.36 -3.14 7.39 -0.67 4.03 -0.67 3.14 -0.45 -2.24 0.45 -6.05 -0.67 -10.53 -2.46 -12.10 -2.46 -2.02 -3.14 -1.12 -3.14 5.15 0 26.65 -23.97 51.29 -49.28 51.07 -3.14 -0.22 -9.41 -1.57 -13.89 -3.14 -9.41 -3.36 -10.30 -2.69 -4.70 3.58 3.81 4.26 3.81 4.26 -8.74 2.46z"/>
  <path d="M660.31 680.47 c-2.02 -1.57 -7.39 -9.86 -12.10 -18.37 l-8.51 -15.46 8.96 1.34 c4.70 0.67 16.58 5.38 26.21 10.53 13.89 7.39 17.25 10.30 17.25 14.56 0 4.70 -0.45 4.93 -8.29 3.14 -12.77 -2.91 -16.35 -2.46 -18.14 2.46 -1.34 3.81 -2.24 4.03 -5.38 1.79z"/>
  <path d="M1480.55 639.93 c0 -1.57 8.06 -7.62 17.92 -13.44 l17.92 -10.30 0 7.62 c0 6.72 -1.34 8.29 -9.63 13.44 -10.53 6.05 -26.21 7.62 -26.21 2.69z"/>
  <path d="M766.26 519.65 c-0.45 -17.02 2.02 -26.88 6.72 -26.88 6.94 0 10.98 6.27 10.98 17.47 l0 10.53 -5.60 -6.50 c-6.50 -7.62 -8.06 -6.72 -10.30 6.05 l-1.34 9.41 -0.45 -10.08z"/>
  <path d="M1633.53 230.93 c-10.30 -4.48 -18.59 -9.41 -18.59 -10.75 0 -1.57 0.45 -2.91 1.12 -2.91 3.58 0 36.96 18.37 36.96 20.16 0 1.34 -0.22 2.24 -0.45 2.02 -0.45 -0.22 -8.96 -3.81 -19.04 -8.51z"/>
  <path d="M2031.56 164.85 c0 -6.50 8.06 -17.02 12.99 -17.02 2.46 0 2.91 0.67 1.34 1.79 -1.57 0.90 -3.81 5.82 -5.38 11.20 -3.14 10.08 -8.96 12.77 -8.96 4.03z"/>
 </g>
 <g fill="#8fd550">
  <path d="M1625.25 1133.37 c-8.96 -4.03 -17.47 -12.99 -15.68 -16.13 0.67 -0.90 0 -1.79 -1.34 -1.79 -1.34 0 -1.79 -0.90 -1.12 -2.24 0.90 -1.57 -0.67 -1.57 -4.48 0 -7.17 2.69 -12.32 2.91 -12.32 0.45 0 -1.12 4.26 -3.36 9.41 -4.70 16.80 -5.15 69.66 -30.24 93.63 -44.57 37.85 -22.62 70.56 -48.38 106.62 -84.44 38.53 -38.30 55.10 -58.46 85.34 -103.48 19.26 -28.89 25.31 -36.06 25.31 -30.01 0 8.06 -34.05 70.78 -56 103.26 -25.53 37.63 -73.02 88.92 -108.63 117.59 -23.29 18.81 -65.40 46.37 -90.04 58.91 l-21.95 10.98 -8.74 -3.81z"/>
  <path d="M883.40 960.23 c-0.45 -54.88 -0.67 -58.01 -8.51 -99.23 -12.77 -68.32 -13.66 -77.50 -13.66 -144.25 0.22 -66.97 1.79 -82.20 14.56 -132.15 19.04 -75.26 49.95 -140.44 96.54 -203.16 19.71 -26.43 74.59 -81.98 99.45 -100.79 65.85 -49.50 136.41 -81.53 212.79 -96.76 101.91 -20.38 210.32 -12.10 306.86 23.52 29.34 10.98 34.27 13.22 31.81 15.68 -0.90 0.90 -10.30 -1.12 -21.05 -4.26 -49.72 -15.01 -81.76 -20.61 -133.50 -24.19 -96.31 -6.27 -193.97 14.11 -272.59 56.67 -86.68 47.04 -160.82 123.19 -205.62 211.89 -51.07 100.57 -63.84 208.98 -37.41 317.84 6.27 26.21 17.47 60.25 24.86 75.93 2.91 6.27 5.38 12.99 5.38 14.78 0 1.79 -3.36 7.84 -7.39 13.22 -18.14 23.74 -64.96 98.78 -74.59 118.94 -3.58 7.62 -12.10 13.22 -12.10 7.84 0 -1.34 -1.34 -0.67 -2.69 1.34 -2.46 3.14 -2.91 -6.94 -3.14 -52.86z"/>
  <path d="M1346.16 907.82 c-21.05 -1.12 -53.98 -5.38 -76.16 -9.86 -25.31 -5.15 -73.92 -19.93 -73.92 -22.40 0 -7.39 80.64 -89.59 118.71 -121.40 45.69 -38.08 167.99 -122.07 172.92 -118.94 2.69 1.57 22.40 -10.08 21.05 -12.32 -0.67 -1.12 17.25 -12.32 39.65 -24.86 22.40 -12.77 50.40 -28.67 62.04 -35.61 11.65 -6.72 33.82 -18.59 49.28 -26.43 15.46 -7.62 32.03 -16.35 36.96 -19.49 l8.96 -5.60 -9.18 -0.22 c-11.65 0 -32.25 3.81 -102.81 19.26 -151.19 33.15 -218.16 55.32 -310.22 102.14 -80.64 40.77 -142.46 84.22 -211 147.83 -29.79 27.55 -33.37 28.22 -36.06 6.27 -1.12 -8.74 -0.90 -25.31 0.45 -41.44 8.51 -91.83 44.35 -184.56 97.66 -253.10 18.81 -24.19 58.24 -61.60 83.99 -79.96 30.46 -21.73 75.93 -44.13 113.34 -56.22 68.54 -21.95 99.45 -25.98 267.44 -32.93 119.38 -5.15 193.75 -15.90 253.33 -36.96 27.33 -9.86 68.99 -30.91 94.97 -48.38 24.64 -16.35 71.23 -59.13 81.98 -74.81 2.91 -4.26 6.27 -7.84 7.39 -7.84 6.05 0 -10.30 79.29 -31.13 152.09 -22.17 77.05 -46.59 139.77 -81.98 210.77 -65.18 130.14 -146.49 226.90 -247.73 294.77 -78.62 52.41 -173.59 86.46 -262.74 93.85 -36.29 3.14 -42.11 3.14 -67.20 1.79z m337.10 -163.96 c19.26 -8.96 27.77 -24.41 28.22 -51.07 0.22 -13.66 -0.90 -21.05 -5.60 -34.05 -8.06 -23.07 -19.49 -47.26 -22.17 -47.26 -1.34 0 -11.65 9.41 -22.85 20.83 -27.55 27.77 -35.84 44.13 -35.61 69.88 0.22 19.71 2.46 25.76 12.77 34.49 13.66 11.65 30.01 14.34 45.25 7.17z"/>
  <path d="M732.44 691 c-21.05 -4.48 -36.51 -10.30 -60.03 -23.07 -11.42 -6.27 -22.62 -12.10 -24.64 -12.77 -2.02 -0.67 -8.29 -9.86 -13.89 -20.61 -6.72 -12.99 -14.78 -24.19 -24.19 -33.82 -7.84 -7.84 -13.66 -14.78 -12.99 -15.46 2.24 -2.46 46.37 -7.39 66.30 -7.39 25.09 0 44.57 2.91 63.61 9.41 17.25 6.05 37.41 17.25 36.73 20.61 -0.22 1.34 1.79 7.62 4.70 13.66 4.70 10.30 9.41 41.44 6.27 41.44 -0.90 0 -8.51 -4.70 -17.47 -10.30 -8.74 -5.60 -21.73 -12.77 -29.12 -15.68 -23.97 -9.86 -23.74 -6.50 0.90 13.89 12.10 10.30 18.14 16.80 17.69 19.26 -0.45 2.02 1.79 7.62 4.93 12.10 8.74 12.99 6.72 13.89 -18.81 8.74z"/>
  <path d="M811.95 529.28 c-0.67 -7.17 -1.79 -16.58 -2.69 -20.83 -1.12 -6.72 -1.57 -7.17 -2.91 -3.36 -1.12 2.46 -2.02 10.08 -2.02 16.80 -0.45 18.59 -2.46 19.71 -13.44 7.84 -5.15 -5.82 -10.98 -14.11 -12.99 -18.59 -1.79 -4.48 -4.93 -9.18 -6.72 -10.75 -3.14 -2.24 -3.14 -3.81 0.45 -15.46 3.81 -11.87 23.97 -47.04 31.36 -54.65 2.69 -2.69 4.48 -0.67 13.22 12.77 13.22 20.16 28.89 52.41 26.21 53.98 -0.90 0.67 -3.58 6.50 -5.60 12.54 -3.81 11.42 -17.69 32.48 -21.28 32.48 -1.12 0 -2.69 -5.82 -3.58 -12.77z"/>
 </g>
 <g fill="#76d375">
  <path d="M1023.17 1852.14 c-47.93 -4.93 -99 -33.37 -127.22 -70.78 -25.53 -33.60 -36.29 -66.30 -36.29 -110.43 -0.22 -43.45 8.29 -72.57 30.91 -106.62 25.09 -37.85 60.03 -62.04 105.72 -72.80 16.35 -4.03 24.19 -4.48 48.61 -3.58 48.16 1.79 78.84 14.34 109.98 45.25 28 27.55 44.13 59.80 50.40 99.67 4.48 28.89 -0.22 46.37 -14.56 55.10 -6.50 4.03 -14.11 4.26 -136.63 4.93 l-129.69 0.67 1.57 10.53 c2.02 15.46 15.23 40.54 28.67 54.65 14.11 14.56 26.21 22.62 46.37 30.46 13.22 5.15 17.92 5.82 43.90 5.82 34.72 0.22 46.81 -3.36 78.62 -22.40 22.40 -13.44 30.91 -15.01 42.78 -7.62 9.86 6.05 15.01 16.35 13.44 27.77 -2.91 22.40 -51.96 50.17 -103.48 58.46 -21.95 3.58 -27.10 3.81 -53.08 0.90z m116.25 -224.66 c-4.70 -33.82 -30.01 -65.40 -62.04 -77.72 -15.23 -5.82 -47.93 -8.06 -64.96 -4.48 -31.36 6.72 -63.61 31.36 -77.28 59.13 -4.48 8.96 -8.51 19.93 -9.41 24.64 l-1.34 8.29 108.19 0 108.19 0 -1.34 -9.86z"/>
  <path d="M435.21 1845.65 c-4.03 -2.24 -8.96 -7.62 -11.20 -11.65 -3.81 -6.94 -4.03 -17.47 -4.03 -161.94 0 -144.47 0.22 -155 4.03 -161.94 5.60 -10.30 16.13 -16.13 29.12 -16.13 14.11 0 22.85 5.15 28.45 16.80 4.26 8.96 4.48 14.34 4.48 160.82 0 166.20 0.45 160.82 -13.22 172.47 -9.18 7.62 -26.43 8.51 -37.63 1.57z"/>
  <path d="M275.50 1844.75 c-33.60 -9.41 -60.25 -38.30 -70.56 -76.60 -3.36 -11.65 -3.58 -35.61 -3.36 -207.86 0.22 -212.12 -0.45 -203.38 13.22 -214.80 18.59 -15.68 44.80 -6.50 51.74 18.14 1.34 5.38 2.24 73.24 2.24 194.42 0 203.16 0 202.04 12.77 214.13 9.18 8.51 13.44 10.08 32.70 11.87 20.61 1.79 29.12 7.39 32.93 21.73 4.26 15.46 -1.12 29.79 -14.11 37.63 -5.82 3.58 -10.98 4.48 -27.33 4.26 -10.98 0 -24.64 -1.34 -30.24 -2.91z"/>
  <path d="M714.52 1845.42 c-29.12 -5.82 -58.46 -29.57 -72.57 -58.24 -15.01 -31.13 -15.46 -33.37 -16.35 -135.74 l-1.12 -92.51 -16.58 0 c-28.45 0 -41.21 -9.18 -41.21 -29.57 0 -9.63 0.90 -12.10 7.62 -18.81 7.62 -7.62 7.62 -7.62 28.89 -7.62 l21.28 0 0.90 -49.72 c0.90 -58.24 2.46 -64.06 19.71 -72.80 12.54 -6.50 21.95 -6.50 31.36 0 15.68 10.30 16.80 14.78 17.47 71.68 l0.67 50.84 35.84 0 c40.77 0 46.14 1.57 52.41 14.78 7.84 16.35 0.22 34.27 -16.58 38.97 -4.48 1.12 -22.40 2.24 -40.09 2.24 l-32.03 0 0.67 91.39 c0.67 89.82 0.67 91.39 5.82 102.36 6.50 14.11 16.80 24.86 27.10 28.22 4.48 1.57 17.69 2.91 29.57 3.14 24.19 0.22 30.69 2.91 36.96 15.23 5.38 9.86 4.93 24.86 -0.45 32.25 -10.08 13.44 -14.78 15.23 -43.01 15.68 -14.34 0.22 -30.69 -0.67 -36.29 -1.79z"/>
  <path d="M436.77 1432.17 c-18.14 -7.84 -27.77 -23.97 -26.43 -43.68 1.12 -16.58 8.29 -27.10 22.85 -34.49 12.77 -6.50 22.62 -6.94 34.49 -2.24 10.98 4.70 18.14 11.65 23.07 22.40 16.13 34.94 -19.26 73.02 -53.98 58.01z"/>
  <path d="M873.55 1054.98 c0 -1.12 1.57 -6.94 3.58 -12.77 3.81 -11.42 8.96 -18.59 12.99 -18.59 1.57 0 1.79 0.67 0.22 1.79 -1.34 0.90 -5.15 8.29 -8.74 16.80 -6.05 14.34 -8.06 17.47 -8.06 12.77z"/>
  <path d="M1644.06 677.34 c0 -10.98 19.26 -36.73 27.33 -36.73 10.08 0 5.60 15.90 -9.63 34.27 -8.51 10.30 -17.69 11.65 -17.69 2.46z"/>
 </g>
</svg>